<svg xmlns="http://www.w3.org/2000/svg" width="600" height="259.559" viewBox="0 0 600 259.559"><path d="M33.77 112.864V91.87c0-1.626-.139-3.231-.417-4.815-.28-1.583-.782-2.996-1.509-4.238-.728-1.24-1.755-2.247-3.082-3.017s-3.04-1.156-5.136-1.156c-2.953 0-5.608.6-7.961 1.797-2.355 1.2-4.152 2.869-5.394 5.008v-6.227H2.503v33.642h8.604V93.218a8.745 8.745 0 0 1 1.412-2.825 11.744 11.744 0 0 1 2.15-2.215 9.727 9.727 0 0 1 2.537-1.445c.899-.342 1.776-.513 2.632-.513 1.67 0 2.974.621 3.917 1.862.94 1.242 1.412 3.21 1.412 5.906v18.876h8.603zm37.141-28.987c-1.52-1.605-3.36-2.878-5.522-3.82-2.161-.942-4.612-1.413-7.35-1.413-2.74 0-5.201.471-7.384 1.413-2.183.942-4.035 2.215-5.554 3.82a16.833 16.833 0 0 0-3.499 5.553c-.814 2.098-1.22 4.324-1.22 6.678 0 2.31.406 4.516 1.22 6.612a16.836 16.836 0 0 0 3.5 5.554c1.518 1.605 3.37 2.879 5.553 3.82 2.183.94 4.644 1.412 7.383 1.412s5.2-.471 7.384-1.412c2.182-.941 4.022-2.215 5.521-3.82a17.143 17.143 0 0 0 3.467-5.554 18.148 18.148 0 0 0 1.22-6.612c0-2.354-.408-4.58-1.22-6.678a16.876 16.876 0 0 0-3.499-5.553zm-4.75 16.275c-.45 1.242-1.071 2.311-1.863 3.21a8.197 8.197 0 0 1-6.26 2.825c-1.242 0-2.398-.246-3.467-.738a8.313 8.313 0 0 1-2.793-2.086c-.792-.9-1.412-1.96-1.861-3.179-.45-1.22-.675-2.578-.675-4.076 0-1.455.225-2.803.675-4.045.449-1.241 1.069-2.312 1.861-3.21a8.707 8.707 0 0 1 2.793-2.12 7.906 7.906 0 0 1 3.467-.77c1.241 0 2.397.247 3.467.738 1.07.493 2 1.188 2.793 2.087.792.9 1.413 1.97 1.862 3.21.45 1.243.674 2.59.674 4.045 0 1.499-.225 2.868-.674 4.109zm16.467-20.93v33.642h8.603V92.512c.898-1.926 2.375-3.37 4.43-4.334 2.055-.963 4.387-1.465 6.998-1.509v-7.832a3.452 3.452 0 0 0-.674-.064h-1.06c-.898 0-1.83.182-2.793.545-.963.364-1.916.889-2.856 1.573a16.288 16.288 0 0 0-2.633 2.408 15.306 15.306 0 0 0-2.119 3.114v-7.191h-7.896zm26.066 0v33.642h8.604V93.218c.641-2.097 1.722-3.788 3.242-5.072 1.518-1.284 3.114-1.926 4.783-1.926 1.626 0 2.899.621 3.82 1.862.92 1.242 1.38 3.21 1.38 5.906v18.876h8.604V93.282c.642-2.096 1.711-3.797 3.21-5.104 1.497-1.305 3.103-1.958 4.815-1.958 1.626 0 2.899.621 3.82 1.862.92 1.242 1.38 3.21 1.38 5.906v18.876h8.604V91.87c0-1.626-.14-3.231-.417-4.815-.28-1.583-.782-2.996-1.51-4.238-.727-1.24-1.755-2.247-3.081-3.017-1.327-.77-3.017-1.156-5.072-1.156-2.696 0-5.094.61-7.191 1.83-2.098 1.22-3.83 2.985-5.2 5.297-.429-2.011-1.413-3.702-2.954-5.073-1.54-1.369-3.724-2.054-6.549-2.054-2.782 0-5.254.589-7.415 1.765-2.162 1.178-3.863 2.858-5.105 5.04v-6.227h-7.768zm85.808 2.985c-2.675-2.375-6.431-3.563-11.268-3.563-5.008 0-9.673 1.434-13.996 4.301l2.632 5.458c1.798-1.24 3.552-2.183 5.265-2.825a14.883 14.883 0 0 1 5.264-.963c2.483 0 4.355.6 5.618 1.798 1.262 1.198 1.894 2.911 1.894 5.136v1.926c-1.113-.47-2.386-.835-3.82-1.091a24.887 24.887 0 0 0-4.398-.386c-2.097 0-4.024.268-5.778.803-1.756.536-3.264 1.274-4.527 2.215a10.084 10.084 0 0 0-2.953 3.435c-.706 1.348-1.059 2.815-1.059 4.398 0 1.54.289 2.953.867 4.237a10.463 10.463 0 0 0 2.407 3.37c1.027.964 2.247 1.713 3.66 2.248 1.412.535 2.931.802 4.558.802 2.44 0 4.73-.513 6.87-1.54 2.14-1.027 3.959-2.525 5.457-4.495l.193 1.862c.214 1.2.76 2.162 1.637 2.89.877.727 2.129 1.091 3.756 1.091 1.07 0 2.333-.15 3.788-.45v-7.319c-.728-.042-1.252-.257-1.573-.642-.321-.385-.482-1.027-.482-1.926V92.512c0-4.494-1.337-7.93-4.012-10.305zm-4.59 19.743c0 .899-.472 1.712-1.413 2.44-.729.856-1.745 1.54-3.05 2.054a11.21 11.21 0 0 1-4.141.77c-1.627 0-2.996-.48-4.109-1.444-1.113-.963-1.67-2.172-1.67-3.627 0-1.541.707-2.814 2.12-3.82 1.412-1.006 3.23-1.51 5.457-1.51 1.112 0 2.268.12 3.467.354 1.197.235 2.311.545 3.338.93v3.853zm17.783-35.954v39.1c0 2.654.738 4.698 2.215 6.131 1.477 1.435 3.563 2.151 6.26 2.151 1.24 0 2.632-.15 4.173-.45 1.54-.298 2.89-.727 4.045-1.283l-1.156-6.55c-.556.258-1.146.473-1.765.643-.621.172-1.188.257-1.702.257-1.113 0-1.969-.342-2.568-1.028-.6-.683-.899-1.647-.899-2.889V65.996h-8.603zm46.964 45.038c2.718-1.646 4.697-3.755 5.939-6.323l-7.384-2.055c-.556 1.37-1.595 2.472-3.113 3.307a9.923 9.923 0 0 1-4.848 1.252 9.065 9.065 0 0 1-3.21-.578 8.637 8.637 0 0 1-2.76-1.67 8.72 8.72 0 0 1-1.991-2.632c-.513-1.027-.835-2.204-.963-3.531h26.002c.086-.342.139-.77.161-1.284a39.27 39.27 0 0 0 .032-1.605c0-2.269-.396-4.452-1.188-6.55a16.126 16.126 0 0 0-3.466-5.52c-1.52-1.583-3.361-2.846-5.522-3.788-2.162-.942-4.613-1.413-7.352-1.413-2.74 0-5.211.471-7.415 1.413-2.205.942-4.077 2.215-5.618 3.82a16.507 16.507 0 0 0-3.53 5.585c-.815 2.119-1.22 4.377-1.22 6.774 0 2.311.416 4.516 1.251 6.613a16.658 16.658 0 0 0 3.564 5.521c1.54 1.584 3.402 2.836 5.585 3.756 2.183.92 4.622 1.38 7.32 1.38 3.765 0 7.008-.823 9.726-2.472zm-17.591-21.218a8.808 8.808 0 0 1 1.893-2.633 8.475 8.475 0 0 1 2.665-1.702 8.568 8.568 0 0 1 3.242-.61c2.354 0 4.355.761 6.003 2.28 1.647 1.52 2.578 3.542 2.793 6.067H236.2c.086-1.24.375-2.375.868-3.402zM26.195 0H18.17l-3.466 7.64 5.52 1.67L26.196 0zM5.201 42.375c1.54 1.583 3.402 2.835 5.585 3.756 2.183.92 4.623 1.38 7.32 1.38 3.765 0 7.008-.824 9.726-2.472 2.718-1.647 4.697-3.756 5.939-6.324l-7.384-2.055c-.556 1.37-1.594 2.472-3.113 3.307a9.923 9.923 0 0 1-4.848 1.252 9.065 9.065 0 0 1-3.21-.578 8.637 8.637 0 0 1-2.76-1.67 8.72 8.72 0 0 1-1.991-2.631c-.513-1.028-.835-2.205-.963-3.532h26.002c.086-.342.139-.77.161-1.284.021-.514.032-1.048.032-1.605 0-2.269-.396-4.451-1.188-6.549a16.126 16.126 0 0 0-3.466-5.521c-1.52-1.583-3.361-2.846-5.522-3.788-2.162-.941-4.613-1.413-7.352-1.413-2.74 0-5.211.472-7.415 1.413-2.205.942-4.077 2.215-5.618 3.82a16.508 16.508 0 0 0-3.53 5.585C.79 25.585.385 27.843.385 30.24c0 2.312.416 4.517 1.251 6.613a16.658 16.658 0 0 0 3.564 5.522zm5.04-18.555a8.809 8.809 0 0 1 1.893-2.633 8.475 8.475 0 0 1 2.665-1.701 8.568 8.568 0 0 1 3.242-.61c2.354 0 4.355.76 6.003 2.28 1.647 1.52 2.578 3.541 2.793 6.066H9.373c.086-1.24.375-2.375.868-3.402zm34.638 18.458c1.54 1.605 3.402 2.88 5.585 3.82 2.183.941 4.644 1.412 7.383 1.412 3.724 0 6.913-.812 9.567-2.44 2.653-1.625 4.559-3.723 5.714-6.29l-8.411-2.569c-.513 1.113-1.423 2.054-2.728 2.825a8.25 8.25 0 0 1-4.27 1.155 8.04 8.04 0 0 1-3.403-.738 8.313 8.313 0 0 1-2.793-2.086c-.792-.9-1.423-1.969-1.893-3.21-.472-1.242-.707-2.611-.707-4.11 0-1.497.225-2.867.674-4.109.45-1.24 1.07-2.3 1.862-3.178a8.536 8.536 0 0 1 2.793-2.054 8.198 8.198 0 0 1 3.467-.739c1.454 0 2.782.332 3.98.995 1.198.665 2.161 1.617 2.89 2.858L73 21.252c-1.283-2.569-3.221-4.645-5.81-6.228-2.59-1.583-5.725-2.376-9.406-2.376-2.74 0-5.2.472-7.383 1.413-2.183.942-4.045 2.205-5.586 3.788a16.25 16.25 0 0 0-3.53 5.521c-.815 2.098-1.22 4.324-1.22 6.678 0 2.31.416 4.526 1.251 6.644a16.943 16.943 0 0 0 3.564 5.586zm37.013 0c1.519 1.605 3.37 2.88 5.553 3.82 2.183.941 4.644 1.412 7.384 1.412 2.738 0 5.2-.47 7.383-1.412 2.183-.94 4.023-2.215 5.522-3.82a17.143 17.143 0 0 0 3.467-5.554 18.148 18.148 0 0 0 1.22-6.612c0-2.354-.408-4.58-1.22-6.678a16.876 16.876 0 0 0-3.5-5.553c-1.52-1.605-3.36-2.878-5.521-3.82-2.162-.941-4.613-1.413-7.351-1.413-2.74 0-5.2.472-7.384 1.413-2.182.942-4.034 2.215-5.553 3.82a16.833 16.833 0 0 0-3.499 5.553c-.814 2.098-1.22 4.324-1.22 6.678 0 2.311.406 4.516 1.22 6.612a16.836 16.836 0 0 0 3.499 5.554zm4.815-16.211c.45-1.241 1.07-2.311 1.862-3.21a8.707 8.707 0 0 1 2.793-2.12 7.906 7.906 0 0 1 3.467-.77c1.24 0 2.396.247 3.467.739 1.07.492 2 1.187 2.793 2.087.791.898 1.412 1.969 1.862 3.21.449 1.242.674 2.59.674 4.045 0 1.498-.225 2.867-.674 4.108-.45 1.242-1.07 2.311-1.862 3.21a8.197 8.197 0 0 1-6.26 2.824c-1.242.001-2.398-.245-3.467-.737a8.313 8.313 0 0 1-2.793-2.086c-.793-.9-1.413-1.959-1.862-3.179-.45-1.22-.674-2.578-.674-4.076 0-1.455.225-2.803.674-4.045zm41.122 21.316c1.24 0 2.632-.151 4.173-.45 1.54-.299 2.889-.728 4.044-1.284l-1.155-6.55c-.557.258-1.146.473-1.765.643-.622.172-1.188.257-1.702.257-1.114 0-1.97-.342-2.568-1.028-.6-.683-.899-1.647-.899-2.888V0h-8.603v39.1c0 2.655.738 4.698 2.215 6.131 1.477 1.435 3.563 2.152 6.26 2.152zm15.857-5.008c1.54 1.583 3.403 2.835 5.586 3.756 2.182.92 4.622 1.38 7.319 1.38 3.766 0 7.008-.824 9.727-2.472 2.717-1.647 4.697-3.756 5.938-6.324l-7.383-2.055c-.557 1.37-1.595 2.472-3.114 3.307a9.923 9.923 0 0 1-4.847 1.252 9.065 9.065 0 0 1-3.21-.578 8.637 8.637 0 0 1-2.76-1.67 8.72 8.72 0 0 1-1.992-2.631c-.513-1.028-.834-2.205-.963-3.532h26.003c.085-.342.138-.77.16-1.284.022-.514.033-1.048.033-1.605 0-2.269-.397-4.451-1.188-6.549a16.126 16.126 0 0 0-3.467-5.521c-1.52-1.583-3.36-2.846-5.522-3.788-2.162-.941-4.612-1.413-7.351-1.413-2.74 0-5.212.472-7.416 1.413-2.205.942-4.077 2.215-5.617 3.82a16.507 16.507 0 0 0-3.531 5.585c-.814 2.119-1.22 4.377-1.22 6.774 0 2.312.417 4.517 1.252 6.613a16.658 16.658 0 0 0 3.563 5.522zm5.04-18.555a8.808 8.808 0 0 1 1.894-2.633 8.475 8.475 0 0 1 2.664-1.701 8.568 8.568 0 0 1 3.243-.61c2.353 0 4.355.76 6.002 2.28 1.648 1.52 2.579 3.541 2.794 6.066h-17.464c.085-1.24.374-2.375.867-3.402zM15.216 179.503c4.194 0 7.512-.952 9.951-2.857s3.66-4.504 3.66-7.802c0-1.411-.246-2.62-.738-3.627-.492-1.004-1.263-1.893-2.311-2.664-1.05-.77-2.398-1.455-4.045-2.054-1.648-.6-3.628-1.198-5.939-1.799a38.216 38.216 0 0 1-3.114-.866c-.835-.278-1.509-.567-2.022-.867-.514-.299-.89-.642-1.124-1.026-.236-.386-.353-.878-.353-1.478 0-1.325.491-2.289 1.477-2.89.984-.597 2.204-.897 3.66-.897 1.582 0 3.178.3 4.782.898 1.606.6 3.264 1.541 4.976 2.825l3.467-5.2c-1.84-1.626-3.863-2.804-6.067-3.531-2.205-.728-4.57-1.092-7.095-1.092-1.883 0-3.627.257-5.232.77-1.605.514-3.008 1.253-4.205 2.215a10.072 10.072 0 0 0-2.793 3.5c-.664 1.37-.995 2.91-.995 4.623 0 1.283.213 2.386.641 3.306.428.92 1.113 1.733 2.055 2.44.94.706 2.183 1.338 3.724 1.894 1.54.556 3.403 1.134 5.586 1.733 2.61.728 4.494 1.37 5.65 1.926 1.155.557 1.733 1.434 1.733 2.632 0 1.199-.492 2.119-1.477 2.761-.985.643-2.333.962-4.044.962-1.927 0-3.864-.373-5.811-1.123-1.948-.747-3.948-1.85-6.003-3.306L0 174.302c1.926 1.669 4.237 2.954 6.934 3.853a26.05 26.05 0 0 0 8.282 1.348zm38.457-1.733c2.354-1.157 4.28-2.89 5.778-5.201l.193 2.697c.17 1.241.739 2.214 1.702 2.92.963.707 2.215 1.06 3.756 1.06.47 0 .995-.023 1.573-.065.577-.043 1.294-.15 2.15-.32v-7.32c-.728-.042-1.251-.257-1.573-.642-.32-.384-.481-1.027-.481-1.926v-23.755h-8.604v20.866c-.984 2.055-2.258 3.585-3.82 4.59-1.563 1.007-3.178 1.51-4.847 1.51-3.723 0-5.586-2.59-5.586-7.77v-19.196h-8.603v21.058c0 4.367.899 7.663 2.697 9.888 1.797 2.226 4.43 3.339 7.896 3.339 2.826 0 5.415-.578 7.77-1.733zm57.72-15.795c0-2.353-.397-4.591-1.188-6.71-.793-2.118-1.884-3.957-3.275-5.52a15.6 15.6 0 0 0-4.975-3.725c-1.926-.92-4.024-1.38-6.292-1.38-2.569 0-4.838.568-6.806 1.702-1.969 1.134-3.574 2.686-4.815 4.655v-5.779H76.53v47.318h8.603v-19.582a12.541 12.541 0 0 0 4.623 4.783c1.968 1.177 4.28 1.766 6.934 1.766 2.14 0 4.109-.45 5.907-1.348 1.797-.9 3.348-2.14 4.655-3.724 1.305-1.583 2.32-3.446 3.049-5.587.727-2.14 1.091-4.43 1.091-6.87zm-9.438 3.853c-.428 1.241-1.028 2.332-1.798 3.273a8.623 8.623 0 0 1-2.793 2.247c-1.091.558-2.279.836-3.563.836-1.841 0-3.553-.631-5.136-1.895-1.585-1.261-2.761-2.856-3.532-4.782v-7.898a7.447 7.447 0 0 1 1.317-2.247 10.35 10.35 0 0 1 1.958-1.797 8.797 8.797 0 0 1 2.375-1.188 8.087 8.087 0 0 1 2.504-.418c1.326 0 2.557.257 3.692.771a9.127 9.127 0 0 1 2.953 2.118c.835.9 1.487 1.96 1.958 3.178.471 1.22.707 2.537.707 3.949 0 1.328-.215 2.611-.642 3.853zm32.1 13.675c3.766 0 7.009-.824 9.727-2.473 2.718-1.646 4.697-3.754 5.939-6.323l-7.384-2.055c-.556 1.371-1.595 2.472-3.113 3.307a9.93 9.93 0 0 1-4.848 1.252 9.065 9.065 0 0 1-3.21-.578 8.639 8.639 0 0 1-2.76-1.67 8.716 8.716 0 0 1-1.991-2.631c-.514-1.028-.835-2.205-.963-3.532h26.002a6.63 6.63 0 0 0 .161-1.285 39.25 39.25 0 0 0 .032-1.604c0-2.268-.396-4.451-1.188-6.549a16.13 16.13 0 0 0-3.467-5.521c-1.52-1.583-3.36-2.847-5.521-3.788-2.162-.941-4.613-1.413-7.352-1.413-2.74 0-5.211.472-7.415 1.413-2.205.941-4.077 2.214-5.618 3.82a16.505 16.505 0 0 0-3.53 5.585c-.815 2.119-1.22 4.377-1.22 6.774 0 2.311.416 4.516 1.251 6.612a16.652 16.652 0 0 0 3.564 5.522c1.54 1.584 3.402 2.836 5.585 3.756s4.622 1.38 7.32 1.38zm-7.864-23.691a8.792 8.792 0 0 1 1.893-2.632 8.475 8.475 0 0 1 2.665-1.702 8.568 8.568 0 0 1 3.242-.61c2.354 0 4.355.76 6.003 2.279 1.647 1.52 2.578 3.542 2.793 6.067h-17.464c.086-1.24.375-2.375.868-3.402zm4.461-16.18l5.522 1.67 5.971-9.31h-8.026l-3.467 7.64zm36.083 18.877c.899-1.927 2.376-3.372 4.43-4.334 2.055-.964 4.387-1.466 6.998-1.51v-7.832a3.503 3.503 0 0 0-.674-.065h-1.06c-.898 0-1.83.183-2.792.546-.963.364-1.916.889-2.857 1.573a16.291 16.291 0 0 0-2.632 2.408c-.814.92-1.52 1.957-2.12 3.114v-7.191h-7.896v33.642h8.603V158.51zm17.463 20.351h8.603v-33.642h-8.603v33.642zm8.603-46.868h-8.603v8.54h8.603v-8.54zm24.59 47.51c3.765 0 7.008-.823 9.726-2.472 2.718-1.646 4.698-3.754 5.939-6.323l-7.383-2.055c-.557 1.371-1.595 2.472-3.114 3.307a9.93 9.93 0 0 1-4.847 1.252 9.065 9.065 0 0 1-3.21-.578 8.639 8.639 0 0 1-2.761-1.67 8.716 8.716 0 0 1-1.99-2.631c-.514-1.028-.835-2.205-.964-3.532h26.003a6.63 6.63 0 0 0 .16-1.285 39.25 39.25 0 0 0 .032-1.604c0-2.268-.396-4.451-1.187-6.549a16.13 16.13 0 0 0-3.467-5.521c-1.52-1.583-3.36-2.847-5.522-3.788-2.162-.941-4.613-1.413-7.351-1.413-2.74 0-5.212.472-7.416 1.413-2.205.941-4.077 2.214-5.617 3.82a16.505 16.505 0 0 0-3.531 5.585c-.815 2.119-1.22 4.377-1.22 6.774 0 2.311.417 4.516 1.252 6.612a16.651 16.651 0 0 0 3.563 5.522c1.54 1.584 3.403 2.836 5.585 3.756s4.623 1.38 7.32 1.38zm-7.865-23.69a8.792 8.792 0 0 1 1.894-2.632 8.475 8.475 0 0 1 2.664-1.702 8.568 8.568 0 0 1 3.242-.61c2.354 0 4.355.76 6.003 2.279 1.647 1.52 2.578 3.542 2.793 6.067H208.66c.085-1.24.374-2.375.867-3.402zm63.079 13.16v-23.754h-8.603v20.866c-.985 2.055-2.259 3.585-3.82 4.59-1.563 1.007-3.178 1.51-4.847 1.51-3.724 0-5.586-2.59-5.586-7.77v-19.196h-8.604v21.058c0 4.367.9 7.663 2.697 9.888 1.797 2.226 4.43 3.339 7.897 3.339 2.825 0 5.414-.578 7.769-1.733 2.353-1.157 4.28-2.89 5.778-5.201l.192 2.697c.17 1.241.74 2.214 1.702 2.92s2.215 1.06 3.756 1.06c.47 0 .995-.023 1.573-.065.578-.043 1.294-.15 2.15-.32v-7.32c-.727-.042-1.251-.257-1.572-.642-.322-.384-.482-1.027-.482-1.926zm9.76-23.754v33.642h8.603V158.51c.898-1.927 2.375-3.372 4.43-4.334 2.054-.964 4.387-1.466 6.999-1.51v-7.832a3.518 3.518 0 0 0-.674-.065h-1.06c-.9 0-1.83.183-2.794.546-.963.364-1.916.889-2.856 1.573a16.292 16.292 0 0 0-2.633 2.408c-.814.92-1.52 1.957-2.119 3.114v-7.191h-7.897zm45.167 26.741a9.928 9.928 0 0 1-4.847 1.252 9.067 9.067 0 0 1-3.21-.578 8.656 8.656 0 0 1-2.761-1.67 8.725 8.725 0 0 1-1.99-2.631c-.514-1.028-.834-2.205-.962-3.532h26.002c.085-.342.138-.77.16-1.285.02-.512.032-1.047.032-1.604 0-2.268-.396-4.451-1.188-6.549a16.131 16.131 0 0 0-3.467-5.521c-1.52-1.583-3.36-2.847-5.52-3.788-2.164-.941-4.614-1.413-7.353-1.413-2.74 0-5.21.472-7.414 1.413-2.205.941-4.078 2.214-5.62 3.82a16.523 16.523 0 0 0-3.53 5.585c-.814 2.119-1.22 4.377-1.22 6.774 0 2.311.418 4.516 1.252 6.612a16.672 16.672 0 0 0 3.563 5.522c1.542 1.584 3.403 2.836 5.586 3.756s4.623 1.38 7.32 1.38c3.766 0 7.008-.823 9.727-2.472 2.717-1.646 4.696-3.754 5.938-6.323l-7.383-2.055c-.557 1.371-1.595 2.472-3.115 3.307zM314.5 155.812a8.813 8.813 0 0 1 1.893-2.632 8.478 8.478 0 0 1 2.665-1.702 8.573 8.573 0 0 1 3.242-.61c2.353 0 4.355.76 6.003 2.279 1.648 1.52 2.579 3.542 2.792 6.067h-17.462c.085-1.24.374-2.375.867-3.402zM32.904 215.741a15.6 15.6 0 0 0-4.976-3.725c-1.925-.92-4.023-1.38-6.292-1.38-2.568 0-4.837.567-6.805 1.701-1.969 1.134-3.574 2.687-4.815 4.656v-5.78H2.504v47.32h8.603V238.95a12.54 12.54 0 0 0 4.623 4.783c1.968 1.177 4.28 1.765 6.933 1.765 2.14 0 4.11-.45 5.908-1.347 1.797-.9 3.348-2.141 4.654-3.725 1.305-1.582 2.321-3.445 3.05-5.586.727-2.14 1.091-4.43 1.091-6.87 0-2.352-.396-4.59-1.188-6.709-.792-2.118-1.884-3.958-3.274-5.52zm-4.976 16.083c-.428 1.241-1.027 2.332-1.797 3.273a8.622 8.622 0 0 1-2.793 2.247c-1.091.557-2.28.835-3.563.835-1.842 0-3.554-.63-5.137-1.894-1.584-1.261-2.76-2.857-3.53-4.782v-7.898a7.447 7.447 0 0 1 1.315-2.247 10.35 10.35 0 0 1 1.958-1.797 8.797 8.797 0 0 1 2.376-1.188 8.087 8.087 0 0 1 2.504-.418c1.326 0 2.557.257 3.692.77a9.127 9.127 0 0 1 2.953 2.12c.835.899 1.487 1.958 1.958 3.177.47 1.22.707 2.537.707 3.949 0 1.328-.215 2.611-.643 3.853zm45.327 3.145v-10.464c0-4.496-1.338-7.93-4.012-10.306-2.676-2.376-6.432-3.563-11.268-3.563-5.008 0-9.673 1.434-13.996 4.301l2.632 5.458c1.798-1.24 3.552-2.183 5.265-2.826a14.897 14.897 0 0 1 5.264-.962c2.483 0 4.355.6 5.618 1.798 1.262 1.198 1.894 2.911 1.894 5.136v1.926c-1.113-.47-2.387-.835-3.82-1.09a24.888 24.888 0 0 0-4.398-.386c-2.097 0-4.024.267-5.778.802-1.756.536-3.264 1.274-4.527 2.215a10.072 10.072 0 0 0-2.953 3.435c-.706 1.348-1.059 2.815-1.059 4.397 0 1.542.288 2.954.867 4.239a10.477 10.477 0 0 0 2.407 3.37c1.027.962 2.247 1.712 3.66 2.247 1.412.535 2.931.802 4.558.802 2.44 0 4.73-.513 6.87-1.54 2.14-1.028 3.959-2.525 5.457-4.495l.193 1.863c.214 1.198.76 2.161 1.637 2.889.877.726 2.129 1.09 3.756 1.09 1.07 0 2.332-.15 3.788-.449v-7.32c-.728-.041-1.252-.256-1.573-.641-.321-.385-.482-1.027-.482-1.926zm-8.603-1.027c0 .898-.471 1.712-1.413 2.44-.728.856-1.744 1.54-3.049 2.054a11.21 11.21 0 0 1-4.141.771c-1.627 0-2.996-.482-4.109-1.445-1.113-.963-1.67-2.172-1.67-3.627 0-1.542.707-2.815 2.12-3.82 1.412-1.006 3.23-1.51 5.457-1.51 1.112 0 2.268.119 3.467.353 1.197.236 2.31.546 3.338.931v3.853zm36.146-23.178c-.898 0-1.83.182-2.793.546-.963.364-1.916.888-2.856 1.573a16.292 16.292 0 0 0-2.633 2.408c-.814.92-1.52 1.957-2.119 3.114v-7.191H82.5v33.642h8.604v-20.351c.898-1.928 2.375-3.372 4.43-4.335 2.054-.963 4.387-1.465 6.997-1.508v-7.834a3.502 3.502 0 0 0-.673-.064h-1.06zm7.768 34.092h8.604v-33.642h-8.604v33.642zm0-38.329h8.604v-8.54h-8.604v8.54zm40.865 22.022c-1.05-.771-2.398-1.455-4.045-2.054-1.648-.6-3.628-1.199-5.939-1.8a38.216 38.216 0 0 1-3.113-.866c-.836-.278-1.51-.566-2.023-.866-.514-.3-.89-.643-1.124-1.027-.236-.385-.353-.877-.353-1.477 0-1.326.492-2.29 1.477-2.89.984-.597 2.204-.898 3.66-.898 1.582 0 3.178.3 4.782.898 1.606.6 3.264 1.542 4.976 2.826l3.467-5.201c-1.84-1.626-3.863-2.803-6.067-3.53-2.205-.728-4.57-1.093-7.094-1.093-1.884 0-3.628.257-5.233.771-1.605.514-3.008 1.252-4.205 2.215a10.072 10.072 0 0 0-2.793 3.5c-.664 1.37-.995 2.91-.995 4.622 0 1.284.213 2.386.642 3.307.427.92 1.113 1.733 2.054 2.44.941.706 2.183 1.338 3.724 1.894 1.54.556 3.403 1.134 5.586 1.733 2.61.727 4.494 1.37 5.65 1.926 1.156.557 1.733 1.434 1.733 2.632s-.492 2.119-1.477 2.761c-.985.642-2.333.962-4.044.962-1.927 0-3.864-.373-5.811-1.123-1.948-.747-3.948-1.85-6.003-3.307l-3.21 5.394c1.926 1.669 4.237 2.953 6.934 3.853a26.05 26.05 0 0 0 8.282 1.347c4.194 0 7.512-.951 9.952-2.856s3.66-4.505 3.66-7.802c0-1.412-.247-2.62-.739-3.627-.492-1.004-1.263-1.893-2.311-2.664zm12.17 4.141h36.983v-7.769H161.6v7.77zm71.88-4.141c-1.049-.771-2.397-1.455-4.045-2.054-1.647-.6-3.627-1.199-5.938-1.8a38.214 38.214 0 0 1-3.114-.866c-.835-.278-1.509-.566-2.023-.866-.513-.3-.889-.643-1.123-1.027-.236-.385-.354-.877-.354-1.477 0-1.326.492-2.29 1.477-2.89.985-.597 2.205-.898 3.66-.898 1.583 0 3.178.3 4.783.898 1.605.6 3.264 1.542 4.976 2.826l3.467-5.201c-1.84-1.626-3.863-2.803-6.068-3.53-2.205-.728-4.569-1.093-7.094-1.093-1.884 0-3.627.257-5.233.771-1.604.514-3.007 1.252-4.205 2.215a10.072 10.072 0 0 0-2.793 3.5c-.664 1.37-.995 2.91-.995 4.622 0 1.284.214 2.386.642 3.307.427.92 1.113 1.733 2.055 2.44.94.706 2.183 1.338 3.724 1.894 1.54.556 3.402 1.134 5.585 1.733 2.61.727 4.494 1.37 5.65 1.926 1.156.557 1.734 1.434 1.734 2.632s-.493 2.119-1.477 2.761c-.985.642-2.333.962-4.044.962-1.927 0-3.864-.373-5.811-1.123-1.948-.747-3.948-1.85-6.003-3.307l-3.21 5.394c1.926 1.669 4.237 2.953 6.933 3.853a26.05 26.05 0 0 0 8.283 1.347c4.194 0 7.511-.951 9.951-2.856 2.44-1.905 3.66-4.505 3.66-7.802 0-1.412-.247-2.62-.738-3.627-.493-1.004-1.263-1.893-2.312-2.664zm38.682 6.42v-10.464c0-4.496-1.338-7.93-4.012-10.306-2.676-2.376-6.432-3.563-11.268-3.563-5.008 0-9.674 1.434-13.997 4.301l2.633 5.458c1.798-1.24 3.552-2.183 5.265-2.826a14.897 14.897 0 0 1 5.264-.962c2.482 0 4.355.6 5.618 1.798 1.262 1.198 1.894 2.911 1.894 5.136v1.926c-1.113-.47-2.387-.835-3.82-1.09a24.888 24.888 0 0 0-4.398-.386c-2.098 0-4.024.267-5.778.802-1.756.536-3.265 1.274-4.527 2.215s-2.247 2.086-2.953 3.435c-.707 1.348-1.06 2.815-1.06 4.397 0 1.542.29 2.954.867 4.239a10.477 10.477 0 0 0 2.408 3.37c1.027.962 2.247 1.712 3.66 2.247 1.412.535 2.93.802 4.558.802 2.44 0 4.73-.513 6.87-1.54 2.14-1.028 3.958-2.525 5.457-4.495l.193 1.863c.213 1.198.76 2.161 1.637 2.889.876.726 2.128 1.09 3.756 1.09 1.07 0 2.332-.15 3.788-.449v-7.32c-.728-.041-1.252-.256-1.573-.641-.321-.385-.482-1.027-.482-1.926zm-8.603-1.027c0 .898-.471 1.712-1.413 2.44-.728.856-1.744 1.54-3.05 2.054a11.21 11.21 0 0 1-4.14.771c-1.627 0-2.997-.482-4.11-1.445-1.113-.963-1.669-2.172-1.669-3.627 0-1.542.706-2.815 2.119-3.82 1.413-1.006 3.231-1.51 5.458-1.51 1.112 0 2.268.119 3.466.353 1.198.236 2.312.546 3.339.931v3.853zm37.655 3.081a8.25 8.25 0 0 1-4.27 1.156 8.05 8.05 0 0 1-3.403-.738 8.306 8.306 0 0 1-2.793-2.087c-.792-.9-1.423-1.968-1.893-3.21-.472-1.24-.707-2.61-.707-4.109 0-1.497.225-2.867.675-4.109.449-1.241 1.069-2.3 1.861-3.177a8.538 8.538 0 0 1 2.793-2.056 8.198 8.198 0 0 1 3.467-.738c1.455 0 2.782.332 3.98.995 1.198.665 2.161 1.616 2.89 2.858l8.41-2.568c-1.283-2.569-3.22-4.645-5.81-6.229-2.59-1.582-5.725-2.375-9.406-2.375-2.74 0-5.2.472-7.383 1.413-2.183.941-4.045 2.205-5.585 3.787a16.252 16.252 0 0 0-3.532 5.522c-.814 2.098-1.22 4.324-1.22 6.677 0 2.311.417 4.527 1.253 6.645a16.956 16.956 0 0 0 3.563 5.586c1.54 1.605 3.402 2.88 5.585 3.82s4.644 1.412 7.384 1.412c3.723 0 6.912-.812 9.566-2.44 2.653-1.625 4.559-3.724 5.714-6.29l-8.41-2.569c-.514 1.113-1.424 2.054-2.73 2.824zm31.33.707a6.41 6.41 0 0 1-1.699.257c-1.114 0-1.971-.343-2.57-1.028-.6-.683-.899-1.647-.899-2.888v-36.084h-8.603v39.1c0 2.655.738 4.699 2.215 6.132 1.477 1.435 3.565 2.151 6.26 2.151 1.243 0 2.632-.15 4.174-.45s2.89-.727 4.046-1.283l-1.156-6.55c-.559.257-1.146.472-1.768.643zm36.693-2.761v-10.464c0-4.496-1.338-7.93-4.013-10.306-2.675-2.376-6.431-3.563-11.268-3.563-5.007 0-9.673 1.434-13.996 4.301l2.633 5.458c1.797-1.24 3.551-2.183 5.263-2.826a14.903 14.903 0 0 1 5.265-.962c2.482 0 4.355.6 5.618 1.798 1.262 1.198 1.894 2.911 1.894 5.136v1.926c-1.113-.47-2.386-.835-3.82-1.09a24.886 24.886 0 0 0-4.397-.386c-2.099 0-4.025.267-5.779.802-1.755.536-3.264 1.274-4.527 2.215s-2.247 2.086-2.953 3.435c-.705 1.348-1.06 2.815-1.06 4.397 0 1.542.29 2.954.867 4.239a10.468 10.468 0 0 0 2.408 3.37c1.028.962 2.247 1.712 3.66 2.247 1.413.535 2.93.802 4.559.802 2.44 0 4.729-.513 6.87-1.54 2.139-1.028 3.957-2.525 5.457-4.495l.193 1.863c.213 1.198.759 2.161 1.636 2.889.877.726 2.129 1.09 3.756 1.09 1.07 0 2.333-.15 3.788-.449v-7.32c-.728-.041-1.252-.256-1.573-.641-.32-.385-.48-1.027-.48-1.926zm-8.604-1.027c0 .898-.47 1.712-1.412 2.44-.729.856-1.745 1.54-3.05 2.054s-2.686.771-4.14.771c-1.629 0-2.997-.482-4.11-1.445-1.113-.963-1.67-2.172-1.67-3.627 0-1.542.707-2.815 2.12-3.82 1.413-1.006 3.23-1.51 5.457-1.51 1.113 0 2.268.119 3.468.353 1.196.236 2.31.546 3.337.931v3.853zm31.461 3.466l-9.118-26.194h-8.86l13.29 33.642c-.427 1.413-.834 2.59-1.22 3.532-.385.941-.77 1.68-1.156 2.214-.384.535-.812.91-1.283 1.124a3.692 3.692 0 0 1-1.54.32c-.472 0-1.05-.053-1.735-.16a16.752 16.752 0 0 1-2.118-.48v7.447c.77.256 1.509.438 2.215.546.706.106 1.402.16 2.086.16 2.91 0 5.35-.749 7.32-2.247 1.968-1.499 3.36-3.425 4.173-5.778l14.125-40.32h-8.09l-8.089 26.194zM181.202 25.823v7.86H600v-7.86H181.202zm89.143 72.538H600V90.5H270.345v7.86zm83.099 67.383H600v-7.86H353.444v7.86zm64.374 66.22H600v-7.859H417.818v7.86z" fill="#157588"/></svg>